<?xml version="1.0" standalone="no"?>
<!DOCTYPE svg PUBLIC "-//W3C//DTD SVG 20010904//EN"
 "http://www.w3.org/TR/2001/REC-SVG-20010904/DTD/svg10.dtd">
<svg version="1.0" xmlns="http://www.w3.org/2000/svg"
 width="208.000000pt" height="208.000000pt" viewBox="0 0 208.000000 208.000000"
 preserveAspectRatio="xMidYMid meet">
<metadata>
Created by potrace 1.14, written by Peter Selinger 2001-2017
</metadata>
<g transform="translate(0.000000,208.000000) scale(0.100000,-0.100000)"
fill="#000000" stroke="none">
<path d="M880 1735 c-146 -36 -266 -113 -385 -248 -40 -45 -112 -175 -120
-217 -2 -11 -7 -25 -10 -30 -14 -22 -18 -61 -21 -194 -2 -133 -1 -143 27 -220
36 -100 92 -194 159 -268 51 -57 204 -168 232 -168 8 0 19 -5 24 -10 11 -11
15 -12 109 -34 87 -21 282 -14 361 12 192 63 345 195 430 369 20 40 37 78 38
85 2 7 6 20 9 28 22 53 31 293 14 366 -24 104 -111 253 -197 341 -43 44 -168
136 -189 139 -3 0 -17 5 -31 11 -93 39 -130 46 -260 49 -89 1 -154 -2 -190
-11z"/>
</g>
</svg>
